<svg width="15" height="12" viewBox="0 0 15 12" fill="none" xmlns="http://www.w3.org/2000/svg">
<g clip-path="url(#clip0_178_70)">
<path d="M1.92 4.93005L1.84 5.34005L1.41 5.03005L1.92 4.93005Z" fill="white"/>
<path d="M8.96 3.39001L6.78 4.32001H5L8.18 3.69001L8.96 3.39001Z" fill="white"/>
<path fill-rule="evenodd" clip-rule="evenodd" d="M15 0.52002V10L13.85 8.92002L9.08001 9.01002L3.62001 7.79002L1.73001 5.94002L1.84001 5.34002L1.92001 4.93002L2.04001 4.32002H6.78001L8.96001 3.39002L11.22 2.42002L13.85 1.30002L13.97 1.96002L15 0.52002Z" fill="white"/>
<mask id="mask0_178_70" style="mask-type:luminance" maskUnits="userSpaceOnUse" x="0" y="0" width="14" height="14">
<path d="M13.86 0H0.0400085V13.31H13.86V0Z" fill="white"/>
</mask>
<g mask="url(#mask0_178_70)">
<path d="M15 0.510017L15.6 1.31002L16 1.01002V0.510017H15ZM15 9.99002H16V9.04002L15.05 8.99002L15 9.99002ZM16 -30.48C16 -35.45 20.03 -39.48 25 -39.48V-41.48C18.92 -41.48 14 -36.56 14 -30.48H16ZM16 0.500019V-30.48H14V0.510017H16V0.500019ZM1.41 6.03002C6.53 6.03002 11.51 4.37002 15.59 1.31002L14.39 -0.289982C10.66 2.51002 6.11 4.03002 1.41 4.03002V6.03002ZM1.7 4.83002C2.29 5.13002 2.08 6.03002 1.41 6.03002V4.03002C-0.0200001 4.03002 -0.48 5.96002 0.79 6.61002L1.7 4.83002ZM4.12 6.07002L1.7 4.83002L0.79 6.61002L3.21 7.85002L4.12 6.07002ZM15.04 8.99002C11.24 8.80002 7.51 7.81002 4.12 6.07002L3.21 7.85002C6.86 9.72002 10.86 10.79 14.95 10.99L15.05 8.99002H15.04ZM15.99 12.52V9.99002H13.99V12.52H15.99ZM24.99 21.52C20.02 21.52 15.99 17.49 15.99 12.52H13.99C13.99 18.6 18.91 23.52 24.99 23.52V21.52ZM285.99 21.52H25V23.52H286V21.52H285.99ZM294.99 12.52C294.99 17.49 290.96 21.52 285.99 21.52V23.52C292.07 23.52 296.99 18.6 296.99 12.52H294.99ZM294.99 -30.48V12.53H296.99V-30.47H294.99V-30.48ZM285.99 -39.48C290.96 -39.48 294.99 -35.45 294.99 -30.48H296.99C296.99 -36.56 292.07 -41.48 285.99 -41.48V-39.48ZM24.99 -39.48H285.99V-41.48H25V-39.48H24.99Z" fill="#333333"/>
</g>
</g>
<defs>
<clipPath id="clip0_178_70">
<rect width="15" height="11.26" fill="white"/>
</clipPath>
</defs>
</svg>
