<svg width="42" height="36" viewBox="0 0 42 36" fill="none" xmlns="http://www.w3.org/2000/svg">
<path d="M32.9501 12.3583C31.3452 12.3583 30.0442 13.6594 30.0442 15.2639C30.0442 16.8688 31.3453 18.1699 32.9501 18.1699C34.555 18.1699 35.8558 16.8687 35.8558 15.2639C35.8559 13.6594 34.5551 12.3583 32.9501 12.3583Z" fill="#333333"/>
<path d="M37.4517 5.80408H28.3274L28.0771 4.44856C27.6688 2.24088 25.7431 0.638428 23.4986 0.638428H11.4801C9.2343 0.638428 7.30861 2.24104 6.90187 4.44888L6.65091 5.80408H5.20191C2.71748 5.80408 0.695801 7.82576 0.695801 10.3108V31.0477C0.695801 33.5321 2.71748 35.5538 5.20191 35.5538H37.4516C39.9362 35.5538 41.9578 33.5321 41.9578 31.0477V10.3108C41.9578 7.82576 39.9362 5.80408 37.4517 5.80408ZM37.8896 31.0477C37.8896 31.2891 37.6934 31.4859 37.4516 31.4859H5.20191C4.96014 31.4859 4.76366 31.2891 4.76366 31.0477V10.3108C4.76366 10.0691 4.96014 9.87234 5.20191 9.87234H10.0367L10.9024 5.18708C10.9534 4.9084 11.1963 4.70669 11.48 4.70669H23.4987C23.782 4.70669 24.0253 4.90905 24.077 5.18741L24.9414 9.87234H37.4516C37.6934 9.87234 37.8896 10.0691 37.8896 10.3108V31.0477Z" fill="#333333"/>
<path d="M19.4818 12.0312C14.9574 12.0312 11.2764 15.7123 11.2764 20.2367C11.2764 24.761 14.9574 28.442 19.4818 28.442C24.0062 28.442 27.6871 24.761 27.6871 20.2367C27.6871 15.7123 24.0061 12.0312 19.4818 12.0312ZM19.4818 24.3741C17.2004 24.3741 15.3443 22.5177 15.3443 20.2367C15.3443 17.9553 17.2004 16.0992 19.4818 16.0992C21.7632 16.0992 23.6193 17.9553 23.6193 20.2367C23.6193 22.5177 21.7631 24.3741 19.4818 24.3741Z" fill="#333333"/>
</svg>
