<svg width="22" height="33" viewBox="0 0 22 33" fill="none" xmlns="http://www.w3.org/2000/svg">
<path d="M19.2231 9.48436H15.6504H12.3909H2.58741C1.42193 9.48436 0.507011 10.4518 0.606893 11.5794L2.30901 30.741C2.39842 31.7388 3.25804 32.506 4.28952 32.506H17.521C18.5528 32.506 19.4123 31.7388 19.5015 30.741L21.2036 11.5794C21.3035 10.4518 20.3889 9.48436 19.2231 9.48436ZM5.93323 28.836L5.23856 20.9951H7.10219L7.11259 28.8358V28.836H5.93323ZM16.7647 18.8264H5.04609L4.62322 14.0853C4.57845 13.5848 4.98419 13.1543 5.50339 13.1543H16.3074C16.8266 13.1543 17.2321 13.5848 17.1875 14.0853L16.7647 18.8264Z" fill="white" stroke="#333333"/>
<path d="M12.8514 8.13994L12.8481 8.14954H16.1077L17.8717 2.97479C18.14 2.18733 17.6998 1.3398 16.8917 1.07631C16.0801 0.816013 15.2035 1.24313 14.9352 2.0306L13.356 6.66038L12.8481 8.13988L12.8514 8.13994Z" fill="white" stroke="#333333"/>
</svg>
