<svg width="42" height="32" viewBox="0 0 42 32" fill="none" xmlns="http://www.w3.org/2000/svg">
<path d="M41.4376 2.41719C41.4376 1.0853 40.3577 0.00500488 39.0254 0.00500488H2.95442C1.62213 0.00500488 0.542236 1.0853 0.542236 2.41719V29.4559C0.542236 30.7881 1.62253 31.868 2.95442 31.868H39.0254C40.3577 31.868 41.4376 30.7881 41.4376 29.4559V2.41719ZM35.9423 28.0306H19.0586H13.9093H6.03707C4.61364 28.0306 3.78575 26.2632 4.61324 24.9912L9.42315 17.5966C10.0933 16.5667 11.6013 16.5667 12.271 17.5966L15.4077 22.4185C16.0694 23.4358 17.4252 23.4991 18.1634 22.5478L25.4893 13.1064C26.164 12.2366 27.4784 12.2366 28.1531 13.1064L37.2741 24.862C38.2425 26.1094 37.4351 28.0306 35.9423 28.0306ZM15.3458 12.2123C13.1477 12.2123 11.3655 10.4305 11.3655 8.23239C11.3655 8.12959 11.3733 8.02927 11.381 7.92863C11.7879 8.12153 12.2413 8.23239 12.7215 8.23239C14.4554 8.23239 15.8608 6.82686 15.8608 5.09296C15.8608 4.80861 15.8197 4.53432 15.7488 4.27289C17.7577 4.47458 19.3257 6.17045 19.3257 8.23239C19.3257 10.4304 17.544 12.2123 15.3458 12.2123Z" fill="#333333"/>
</svg>
