<svg width="45" height="34" viewBox="0 0 45 34" fill="none" xmlns="http://www.w3.org/2000/svg">
<rect x="2.46426" y="2.42859" width="40.0714" height="29.1429" fill="#333333"/>
<path d="M43.2093 0H1.7909C1.29966 0 0.850379 0.212458 0.541495 0.531588C0.232611 0.843364 0.035873 1.28981 0.035873 1.77887V32.2211C0.0290284 32.7033 0.232611 33.1565 0.54834 33.4757C0.857224 33.7945 1.3066 34 1.7909 34H43.2093C43.6868 34 44.1361 33.7945 44.4518 33.4757C44.7679 33.1565 44.9643 32.7033 44.9643 32.2211V1.77887C44.9643 1.28981 44.7679 0.843364 44.4518 0.531588C44.143 0.212458 43.6935 0 43.2093 0ZM42.3177 4.76834V31.3279H2.6756V4.75585L20.2467 20.5616H20.2539C20.8856 21.1288 21.6929 21.4265 22.4933 21.4265C22.774 21.4265 23.0479 21.3767 23.3214 21.306H23.4058L23.6166 21.2279C24.0235 21.0863 24.4027 20.8593 24.7396 20.5617C27.7198 17.884 34.9136 11.414 39.7519 7.06338L42.3177 4.76834ZM40.6494 2.68257C36.3335 6.56458 26.5829 15.3336 22.9845 18.5699C22.9073 18.6338 22.823 18.6835 22.739 18.7118C22.6615 18.7402 22.5776 18.7544 22.4932 18.7544C22.3177 18.7544 22.1491 18.6976 22.0016 18.563L4.33226 2.67211H25.1539L40.6494 2.68257Z" fill="white"/>
</svg>
