<svg width="19" height="25" viewBox="0 0 19 25" fill="none" xmlns="http://www.w3.org/2000/svg">
<path d="M9.20423 16.5329C11.7794 16.5329 13.8735 14.4389 13.8735 11.8638V4.66927C13.8735 2.09394 11.7794 0 9.20423 0C6.63291 0 4.53882 2.09394 4.53882 4.66927V11.8638C4.53882 14.4389 6.63291 16.5329 9.20423 16.5329ZM12.0412 7.92968H6.37115V4.66927C6.37115 3.1064 7.64136 1.83233 9.20423 1.83233C10.7671 1.83233 12.0412 3.10635 12.0412 4.66927V7.92968H12.0412Z" fill="#333333"/>
<path d="M11.478 23.0281H6.93274V24.9941H11.478V23.0281Z" fill="#333333"/>
<path d="M15.371 7.4248V8.37312H15.3631V12.2026C15.3631 13.9437 14.6476 15.6228 13.3998 16.8094C12.1755 17.9736 10.5773 18.5682 8.89532 18.4839C5.61631 18.3193 3.04762 15.6172 3.04762 12.3324V9.02609V8.37312V7.4248H0V9.02609H1.05512V12.3324C1.05512 16.5191 4.20878 19.9892 8.31855 20.4347V22.3066H10.0921V20.4353C11.8396 20.2458 13.4678 19.4944 14.7728 18.2533C16.4144 16.6923 17.3556 14.4868 17.3556 12.2026V9.02609H18.4186V7.4248H15.371Z" fill="#333333"/>
</svg>
