<svg width="22" height="22" viewBox="0 0 22 22" fill="none" xmlns="http://www.w3.org/2000/svg">
<g clip-path="url(#clip0_38_168)">
<path d="M21.4202 18.7183L17.6315 14.9186L16.9495 14.2338C16.9494 14.2339 16.9492 14.2341 16.9492 14.2341L16.9468 14.2318C16.9207 14.2704 16.8924 14.3073 16.8658 14.3455C16.7364 14.531 16.6012 14.7113 16.4605 14.8868C16.3943 14.9692 16.3269 15.0504 16.2581 15.1308C16.12 15.2922 15.9769 15.4489 15.8293 15.6006C15.7548 15.6772 15.6793 15.7525 15.6025 15.8267C15.4349 15.988 15.2626 16.1446 15.0835 16.2939C15.034 16.3356 14.9842 16.3772 14.9336 16.4179C14.7044 16.6015 14.4689 16.7781 14.2227 16.9417L14.223 16.9422C14.2221 16.9428 14.2212 16.9435 14.2202 16.9442L18.6968 21.4338C19.0715 21.8094 19.5649 21.9994 20.0556 22C20.5493 22.0007 21.0403 21.8124 21.4161 21.4376C22.1708 20.6883 22.1725 19.4699 21.4202 18.7183Z" fill="#333333"/>
<path d="M17.3827 8.69555C17.3842 7.68248 17.2096 6.7101 16.8906 5.805C16.8855 5.79069 16.8812 5.77621 16.876 5.76208C16.8375 5.65491 16.7963 5.54938 16.7538 5.44432C16.7429 5.41699 16.7328 5.38949 16.7216 5.36234C16.6801 5.26265 16.6358 5.16425 16.5907 5.06633C16.5769 5.03625 16.564 5.00583 16.5499 4.97592C16.5017 4.87443 16.4507 4.77474 16.3987 4.67535C16.3861 4.65099 16.3742 4.62594 16.361 4.60153C16.2991 4.48577 16.2341 4.37156 16.1671 4.25903C16.1638 4.25301 16.1605 4.247 16.1569 4.24098C15.3494 2.89065 14.1863 1.77707 12.797 1.03023C12.7873 1.02503 12.7772 1.02017 12.7673 1.01493C12.6528 0.953959 12.5371 0.895048 12.4197 0.839146C12.4106 0.834935 12.4013 0.830982 12.3922 0.826771C11.2746 0.299287 10.0279 0.00181402 8.71228 9.32904e-06C3.92445 -0.00695161 0.0236149 3.88245 0.016611 8.67033C0.0096071 13.4582 3.89922 17.3592 8.68706 17.3662C13.4749 17.373 17.3758 13.4834 17.3827 8.69555ZM14.0463 8.69065C14.0419 11.6387 11.64 14.0337 8.69192 14.0295C5.74383 14.0251 3.34884 11.6234 3.35322 8.67519C3.35743 5.7271 5.75943 3.33211 8.70738 3.33649C11.6555 3.34074 14.0505 5.74257 14.0463 8.69065Z" fill="#333333"/>
</g>
<defs>
<clipPath id="clip0_38_168">
<rect width="22" height="22" fill="white"/>
</clipPath>
</defs>
</svg>
