<svg width="10" height="16" viewBox="0 0 10 16" fill="none" xmlns="http://www.w3.org/2000/svg">
<path d="M8.94659 0.386646C8.82263 0.261675 8.67517 0.162483 8.51269 0.0947914C8.35021 0.0270998 8.17593 -0.00775146 7.99992 -0.00775146C7.8239 -0.00775146 7.64963 0.0270998 7.48715 0.0947914C7.32467 0.162483 7.1772 0.261675 7.05325 0.386646L0.386585 7.05331C0.261614 7.17726 0.162422 7.32473 0.0947301 7.48721C0.0270385 7.64969 -0.0078125 7.82396 -0.0078125 7.99998C-0.0078125 8.176 0.0270385 8.35027 0.0947301 8.51275C0.162422 8.67523 0.261614 8.8227 0.386585 8.94665L7.05325 15.6133C7.1772 15.7383 7.32467 15.8375 7.48715 15.9052C7.64963 15.9729 7.8239 16.0077 7.99992 16.0077C8.17593 16.0077 8.35021 15.9729 8.51269 15.9052C8.67517 15.8375 8.82263 15.7383 8.94659 15.6133C9.07156 15.4894 9.17075 15.3419 9.23844 15.1794C9.30613 15.0169 9.34098 14.8427 9.34098 14.6666C9.34098 14.4906 9.30613 14.3164 9.23844 14.1539C9.17075 13.9914 9.07156 13.8439 8.94659 13.72L3.21325 7.99998L8.94659 2.27998C9.07156 2.15603 9.17075 2.00856 9.23844 1.84608C9.30613 1.6836 9.34098 1.50933 9.34098 1.33331C9.34098 1.1573 9.30613 0.983023 9.23844 0.820544C9.17075 0.658065 9.07156 0.510597 8.94659 0.386646Z" fill="#333333"/>
</svg>
