<svg width="36" height="34" viewBox="0 0 36 34" fill="none" xmlns="http://www.w3.org/2000/svg">
<g clip-path="url(#clip0_12_30)">
<path d="M9.83759 11.932C9.83759 11.7631 9.92236 11.6054 10.0645 11.5077C11.5933 10.4591 13.8427 9.23599 14.6898 9.02161C14.9067 8.96742 15.1201 8.92617 15.3377 8.89592C15.3399 8.89567 15.3422 8.89517 15.3445 8.89517L15.4026 9.42399H17.3639L17.5445 7.80386C17.5551 7.70717 17.5202 7.61099 17.4495 7.54236C17.4022 7.49649 17.3425 7.46574 17.2766 7.45399C17.069 7.41686 16.5769 7.33849 16.1285 7.33849C15.5343 7.33849 14.92 7.41736 14.3034 7.57311C13.4692 7.7818 11.4162 8.8458 10.0175 9.71911C9.93975 9.76767 9.83759 9.71299 9.83759 9.62336V9.24886V9.24767V9.23767H7.48007V12.9628H9.83766L9.83759 11.932Z" fill="#C3292F" stroke="#333333"/>
<path d="M9.83759 7.39418C9.83759 6.71868 10.3836 6.1623 11.0788 6.1293L13.4376 6.01718C13.6364 6.00768 13.7924 5.84849 13.7924 5.65537C13.7924 5.44855 13.614 5.28374 13.4011 5.2938L9.31682 5.48787C8.2883 5.53674 7.48013 6.36024 7.48013 7.35949V7.6503V8.17518H9.83772V7.39418H9.83759Z" fill="#C3292F" stroke="#333333"/>
<path d="M33.0095 13.8315H3.34439C2.42698 13.8315 1.68503 14.5514 1.68503 15.4364C1.68503 16.2065 2.24161 16.8466 2.98356 17.0066L4.03482 22.1664C4.49851 24.4562 6.40445 26.1757 8.72776 26.4963V27.519C8.72776 28.175 9.27577 28.7065 9.95158 28.7065C10.6274 28.7065 11.1754 28.175 11.1754 27.519V26.5566H25.1763V27.519C25.1763 28.175 25.724 28.7065 26.4001 28.7065C27.0759 28.7065 27.6239 28.175 27.6239 27.519V26.4965H27.6246C29.9434 26.1764 31.8501 24.4565 32.3191 22.1664L33.3703 17.0066C34.107 16.8466 34.6636 16.2065 34.6636 15.4364C34.6636 14.5514 33.9217 13.8315 33.0095 13.8315ZM10.4988 21.5139C10.5008 21.6418 10.49 21.7668 10.4711 21.8886C10.4681 21.9074 10.4651 21.926 10.4615 21.9447C10.3669 22.4599 10.0866 22.9008 9.63603 23.1466C8.71868 23.6466 7.45107 23.1615 6.81223 22.0514C6.16812 20.9464 6.38957 19.6466 7.30691 19.1416C8.224 18.6416 9.48653 19.1316 10.1306 20.2365C10.3709 20.6489 10.4902 21.0891 10.4982 21.5048C10.4986 21.5077 10.4988 21.5109 10.4988 21.5139Z" fill="#C3292F" stroke="#333333"/>
</g>
<defs>
<clipPath id="clip0_12_30">
<rect width="35.0398" height="34" fill="white" transform="translate(0.654449)"/>
</clipPath>
</defs>
</svg>
