<svg width="18" height="16" viewBox="0 0 18 16" fill="none" xmlns="http://www.w3.org/2000/svg">
<mask id="mask0_130_6" style="mask-type:alpha" maskUnits="userSpaceOnUse" x="0" y="0" width="18" height="16">
<rect width="18" height="16" fill="#D9D9D9"/>
</mask>
<g mask="url(#mask0_130_6)">
<path fill-rule="evenodd" clip-rule="evenodd" d="M-10 -22C-4.47715 -22 4.31875e-08 -17.5228 4.31875e-08 -12V-0.0191212C3.91289 2.90806 8.67726 4.5 13.5857 4.5C13.9696 4.5 14.0943 5.01599 13.7527 5.19128L11.3315 6.4337C7.8085 8.24157 3.94469 9.27351 4.31875e-08 9.46671V12C4.31875e-08 17.5228 -4.47715 22 -10 22H-253C-258.523 22 -263 17.5228 -263 12V-12C-263 -17.5228 -258.523 -22 -253 -22H-10Z" fill="#333333"/>
</g>
</svg>
