<svg width="29" height="32" viewBox="0 0 29 32" fill="none" xmlns="http://www.w3.org/2000/svg">
<path d="M21.6372 1C18.2216 1 15.4534 4.31605 15.4534 8.05873C15.4534 10.3366 16.5573 12.3452 17.9065 13.5958C19.0906 14.6945 19.8181 15.5404 19.9634 17.3761V29.4794C19.9634 30.3189 20.6654 31.0001 21.5306 31.0001H21.7429C22.6081 31.0001 23.3101 30.3189 23.3101 29.4794V17.376C23.4554 15.5404 24.1829 14.6944 25.367 13.5958C26.7163 12.3452 27.8202 10.3365 27.8202 8.05867C27.8201 4.31605 25.0509 1 21.6372 1Z" fill="#6277FE" stroke="#333333"/>
<path d="M10.5687 2.4383V8.84699C10.5687 9.25621 10.2272 9.58855 9.80536 9.58855H9.60059C9.17977 9.58855 8.83726 9.25621 8.83726 8.84699V2.409C8.83726 1.35338 8.10508 1.03662 7.40214 1.03662C6.70015 1.03662 5.96798 1.35338 5.96798 2.409V8.84699C5.96798 9.25621 5.62547 9.58855 5.20374 9.58855H4.99994C4.5782 9.58855 4.2366 9.25621 4.2366 8.84699V2.4383C4.2366 0.547715 1.45886 0.611816 1.45886 2.45934C1.45886 4.67125 1.45886 8.57875 1.45886 8.57875C1.44564 11.9772 2.28258 12.8588 3.6639 13.9181C4.77729 14.7714 5.72927 15.2584 5.72927 17.377V29.4793C5.72927 30.3188 6.43029 31 7.29646 31H7.50878C8.37398 31 9.07597 30.3188 9.07597 29.4793V17.377C9.07597 15.2584 10.027 14.7713 11.1404 13.9181C12.5227 12.8588 13.3596 11.9772 13.3464 8.57875C13.3464 8.57875 13.3464 4.67125 13.3464 2.45934C13.3464 0.611816 10.5687 0.547715 10.5687 2.4383Z" fill="#6277FE" stroke="#333333"/>
</svg>
