<svg width="35" height="27" viewBox="0 0 35 27" fill="none" xmlns="http://www.w3.org/2000/svg">
<path d="M33.6328 0.25238H1.36732C0.984642 0.25238 0.634642 0.416306 0.394017 0.662537C0.153392 0.903093 0.000130408 1.24756 0.000130408 1.6249V25.1132C-0.00520162 25.4852 0.153392 25.8349 0.399349 26.0811C0.639974 26.3271 0.990043 26.4857 1.36732 26.4857H33.6328C34.0048 26.4857 34.3548 26.3271 34.6008 26.0811C34.847 25.8349 35 25.4852 35 25.1132V1.6249C35 1.24756 34.847 0.903093 34.6008 0.662537C34.3602 0.416306 34.0101 0.25238 33.6328 0.25238ZM32.9383 3.93148V24.424H2.05652V3.92184L15.7447 16.1171H15.7503C16.2424 16.5547 16.8712 16.7844 17.4948 16.7844C17.7135 16.7844 17.9268 16.746 18.1399 16.6914H18.2057L18.3699 16.6311C18.6868 16.5219 18.9822 16.3468 19.2447 16.1172C21.5663 14.0511 27.1704 9.05905 30.9394 5.70226L32.9383 3.93148ZM31.6386 2.32217C28.2765 5.3174 20.6806 12.0833 17.8774 14.5803C17.8173 14.6297 17.7516 14.6679 17.6862 14.6898C17.6258 14.7117 17.5604 14.7227 17.4947 14.7227C17.358 14.7227 17.2266 14.6789 17.1118 14.575L3.34707 2.3141H19.5675L31.6386 2.32217Z" fill="white"/>
</svg>
