<svg width="46" height="46" viewBox="0 0 46 46" fill="none" xmlns="http://www.w3.org/2000/svg">
<path d="M45.2295 12.0504L38.4788 5.28965L34.2428 1.07185C34.0376 0.867628 33.7057 0.867977 33.5012 1.0729L5.1805 29.3932C5.13067 29.4431 5.07612 29.498 5.03118 29.5525L4.39525 30.1884C4.05237 30.5313 3.79884 30.964 3.65503 31.4359L0.772203 41.2462C0.399162 42.4542 0.732425 43.7614 1.62669 44.6557C2.50146 45.5305 3.78398 45.8686 4.98642 45.5305L14.8768 42.658C15.3487 42.5138 15.7862 42.2455 16.1341 41.8975L45.2295 12.7923C45.434 12.5874 45.4344 12.2553 45.2295 12.0504ZM3.33549 42.1737L3.82865 40.6254L4.51231 41.3014L4.73883 41.5317L3.89553 41.9235L3.33549 42.1737ZM6.76079 41.9573L4.31552 39.5316L6.46285 32.2558L7.24774 31.4709V31.4606L7.59534 31.113L7.48519 33.5544L7.47041 33.8472H7.47216L7.47146 33.8612L9.80552 33.7016L10.0859 33.6841L10.056 34.1893L9.93238 36.1547L9.91559 36.3918H9.9176L9.91664 36.406L12.1332 36.2567L12.5604 36.2261L12.615 36.2241L12.5756 36.6994L12.4449 38.6414L12.4253 38.9015L12.427 38.9012L12.4263 38.9157L14.6429 38.7763L14.9339 38.7561L15.1344 38.752L14.8368 39.0499L14.0516 39.845L6.76079 41.9573ZM12.3123 29.9351L34.3485 7.89849L34.9449 8.4949L12.9087 30.5315L12.3123 29.9351ZM37.8126 11.3626L38.409 11.9587L16.3724 33.9953L15.7764 33.3992L37.8126 11.3626Z" fill="#333333"/>
</svg>
