<svg width="22" height="22" viewBox="0 0 22 22" fill="none" xmlns="http://www.w3.org/2000/svg">
<path d="M12.784 19.024C12.784 20.432 12.304 21.136 11.344 21.136C10.3627 21.136 9.872 20.432 9.872 19.024V12.112H2.96C1.552 12.112 0.848 11.6213 0.848 10.64C0.848 9.68 1.552 9.2 2.96 9.2H9.904V2.256C9.904 0.847999 10.3947 0.143999 11.376 0.143999C12.336 0.143999 12.816 0.847999 12.816 2.256V9.168L19.728 9.2C21.136 9.2 21.84 9.68 21.84 10.64C21.84 11.6 21.136 12.08 19.728 12.08L12.816 12.112L12.784 19.024Z" fill="#333333"/>
</svg>
