<svg width="30" height="31" viewBox="0 0 30 31" fill="none" xmlns="http://www.w3.org/2000/svg">
<path d="M2.83237 1L1 2.81081V28.1993L2.70084 30H27.2614L29 28.1993V2.80272L27.2614 1H2.83237ZM14.414 3.09542V5.78837H15.586V3.09542C17.2335 3.11565 18.8744 3.21884 20.4437 3.40767L19.6428 6.71907L20.7758 7.01581L21.6093 3.56616C23.3805 3.83391 25.0279 4.21495 26.4605 4.7093L23.3349 12.2628C21.6353 11.8244 19.2391 11.5614 16.7256 11.4805C16.9926 11.8514 17.1488 12.31 17.1488 12.8023C17.1488 14.023 16.1786 15.0279 15 15.0279C13.8214 15.0279 12.8512 14.023 12.8512 12.8023C12.8512 12.31 13.0074 11.8514 13.2744 11.4805C10.7544 11.5614 8.36465 11.8244 6.66512 12.2628L3.53953 4.7093C4.97209 4.21495 6.61953 3.83391 8.3907 3.56616L9.22419 7.01581L10.3572 6.71907L9.55628 3.40767C11.1256 3.21884 12.7665 3.11565 14.414 3.09542ZM12.4149 4.47056L11.334 4.94805L13.8149 10.9477C14.147 10.7251 14.5312 10.5902 14.9479 10.5767L12.4149 4.47056ZM15 11.7907C14.453 11.7907 14.0233 12.2358 14.0233 12.8023C14.0233 13.3688 14.453 13.814 15 13.814C15.547 13.814 15.9767 13.3688 15.9767 12.8023C15.9767 12.2358 15.547 11.7907 15 11.7907ZM6.66512 22.4465H23.3349V23.6605H6.66512V22.4465ZM6.66512 25.6837H23.3349V26.8977H6.66512V25.6837Z" fill="#167E56" stroke="#333333"/>
</svg>
