<svg width="27" height="27" viewBox="0 0 27 27" fill="none" xmlns="http://www.w3.org/2000/svg">
<g clip-path="url(#clip0_206_247)">
<path d="M13.5615 18.3222C16.3344 18.3222 18.59 16.0666 18.59 13.2942C18.59 10.5214 16.334 8.26538 13.5615 8.26538C10.7887 8.26538 8.53311 10.5214 8.53311 13.2942C8.53311 16.0666 10.7887 18.3222 13.5615 18.3222ZM13.5615 9.74799C15.5165 9.74799 17.107 11.3389 17.107 13.2938C17.107 15.2484 15.5165 16.8389 13.5615 16.8389C11.6066 16.8389 10.0161 15.2484 10.0161 13.2938C10.0161 11.3385 11.6066 9.74799 13.5615 9.74799Z" fill="#333333" stroke="#333333" stroke-width="0.5"/>
<path d="M2.69236 16.2806H4.55091C4.73221 17.022 4.96726 17.3698 5.25311 17.8911L3.93103 19.2024C3.32782 19.8049 3.32745 20.7814 3.93103 21.3854L5.64128 23.093C5.9338 23.3848 6.32234 23.5442 6.73572 23.5442C7.1491 23.5442 7.53802 23.3826 7.82942 23.0908L9.20155 21.7183C9.70169 21.9789 10.207 22.1869 10.7272 22.3467L10.7194 24.3502C10.7194 25.1744 11.4891 25.92 12.3662 25.92H14.7846C15.624 25.92 16.2806 25.1959 16.2806 24.328V22.3411C16.9142 22.1669 17.395 21.9404 17.8792 21.6638L19.314 23.0904C19.6065 23.3822 19.9958 23.5431 20.4103 23.5431C20.8248 23.5431 21.2141 23.3822 21.5059 23.0904L23.2191 21.3802C23.8219 20.7762 23.8223 19.7945 23.2198 19.192L21.8303 17.8017L21.7969 17.7795C22.0553 17.2919 22.2704 16.6513 22.4391 16.2806H24.4585C25.2919 16.2806 25.92 15.5565 25.92 14.6541V12.2357C25.92 11.3459 25.2919 10.7194 24.4589 10.7194H22.498C22.333 9.97787 22.1169 9.60527 21.8514 9.08993L23.221 7.70927C23.8238 7.10607 23.8238 6.11877 23.2206 5.51519L21.5103 3.80235C21.2182 3.50983 20.8296 3.34781 20.4163 3.34781C20.0036 3.34781 19.6147 3.50797 19.3222 3.80012L18.002 5.11998C17.4647 4.82931 16.8838 4.58499 16.2832 4.39776L16.2806 2.58407C16.2806 1.71393 15.6377 1.07996 14.785 1.07996H12.3666C11.4735 1.07996 10.7194 1.73469 10.7194 2.56183V4.3885C10.2411 4.54718 9.64423 4.77185 9.07513 5.06103L7.8209 3.80012C7.52875 3.5076 7.14095 3.34707 6.72905 3.34707C6.31752 3.34707 5.92935 3.50797 5.63646 3.80049L3.92843 5.51037C3.32597 6.11358 3.32634 7.09531 3.92954 7.69889L5.18711 8.97796C4.88088 9.5237 4.64657 9.97787 4.47231 10.7194H2.69236C1.81814 10.7194 1.07999 11.3897 1.07999 12.2357V14.6541C1.07999 15.4972 1.83334 16.2806 2.69236 16.2806ZM2.69236 12.2023H5.06291C5.41846 12.2023 5.72395 11.928 5.79106 11.5787C5.97384 10.6296 6.27229 10.0112 6.75908 9.22266C6.94779 8.91716 6.89032 8.5149 6.62301 8.2754L4.97838 6.65301C4.95317 6.62743 4.9528 6.58517 4.97801 6.55996L6.6853 4.8497C6.69457 4.84006 6.76427 4.84118 6.77094 4.84748L8.1668 6.25113L8.35514 6.47394C8.59205 6.7546 8.99913 6.81985 9.3113 6.62632C10.0999 6.13953 11.1257 5.80363 11.667 5.64681C11.9844 5.55486 12.2024 5.26457 12.2024 4.93423V2.58889C12.2287 2.56035 12.2988 2.51882 12.3662 2.51882L14.7883 2.50992C14.7909 2.514 14.7976 2.53069 14.7976 2.56183V4.37255C14.7976 4.38664 14.798 4.40036 14.7987 4.41408L14.8324 5.00987C14.8506 5.3339 15.0771 5.60862 15.3923 5.68759C16.2331 5.89817 17.0417 6.24149 17.7313 6.67971C18.0301 6.86916 18.4198 6.82207 18.6641 6.56737L20.371 4.84896C20.3955 4.82375 20.437 4.82338 20.4622 4.84896L22.1721 6.55847C22.1973 6.58368 22.1973 6.62521 22.1725 6.65042L20.7551 8.06778L20.4122 8.40071C20.1656 8.64021 20.116 9.01763 20.2921 9.31275C20.7143 10.0194 21.0213 10.805 21.2048 11.6047C21.2812 11.941 21.5811 12.2023 21.9267 12.2023H24.4266C24.4318 12.2023 24.437 12.2016 24.437 12.2357V14.6541C24.437 14.6993 24.4285 14.7976 24.4199 14.7976H21.8807C21.5415 14.7976 21.2456 15.0059 21.1622 15.3344C20.9727 16.0811 20.6747 16.7837 20.2754 17.4462C20.1186 17.7061 20.1363 18.0305 20.321 18.2726L20.681 18.7427C20.701 18.769 20.7225 18.7927 20.7462 18.8157L22.171 20.2409C22.1958 20.2657 22.1951 20.3065 22.1706 20.3313L20.4578 22.0412C20.4329 22.066 20.3885 22.0675 20.361 22.0394L18.9181 20.6057L18.4976 20.2023C18.2544 19.968 17.8837 19.9287 17.596 20.1052C16.8697 20.5512 16.3751 20.8344 15.3975 21.0246C15.0493 21.0925 14.7976 21.398 14.7976 21.7528V24.328C14.7976 24.3695 14.7861 24.437 14.7917 24.437C14.7909 24.437 14.7887 24.437 14.7846 24.437H12.3662C12.2999 24.437 12.2139 24.3569 12.2024 24.3502L12.202 22.5792L12.2317 21.8199C12.2458 21.4643 12.0051 21.147 11.6589 21.0665C10.8985 20.8889 10.1792 20.5942 9.46034 20.1671C9.34281 20.097 9.21194 20.0622 9.0818 20.0622C8.89495 20.0622 8.70957 20.1322 8.56758 20.269L6.78021 22.042C6.75537 22.0668 6.71385 22.0657 6.68938 22.0416L4.97987 20.3317C4.95466 20.3069 4.95429 20.2657 4.97987 20.2405L6.70977 18.5076C6.95298 18.2622 6.9945 17.8814 6.80913 17.5889C6.36238 16.8841 6.03204 16.1408 5.82813 15.334C5.74397 15.0048 5.44775 14.7976 5.10852 14.7976C5.10777 14.7976 5.10666 14.7976 5.10592 14.7976L2.69199 14.7764C2.64973 14.7764 2.57113 14.7012 2.5626 14.6648L2.56186 12.2713C2.5715 12.2409 2.64046 12.2023 2.69236 12.2023Z" fill="#333333" stroke="#333333" stroke-width="0.5"/>
</g>
<defs>
<clipPath id="clip0_206_247">
<rect width="27" height="27" fill="white"/>
</clipPath>
</defs>
</svg>
