<svg width="14" height="14" viewBox="0 0 14 14" fill="none" xmlns="http://www.w3.org/2000/svg">
<path d="M4.61121 10.3131C4.29443 10.6299 4.02384 10.6761 3.79946 10.4517C3.56847 10.2207 3.61137 9.94682 3.92815 9.63004L6.39312 7.16506L3.92815 4.70009C3.61137 4.38331 3.56517 4.11272 3.78956 3.88833C4.01395 3.66394 4.28453 3.71014 4.60132 4.02692L7.08609 6.4919L9.55106 4.02692C9.86785 3.71014 10.1384 3.66394 10.3628 3.88833C10.5872 4.11272 10.541 4.38331 10.2242 4.70009L7.76915 7.15517L10.2341 9.63994C10.5443 9.95012 10.5872 10.2174 10.3628 10.4418C10.1384 10.6662 9.87115 10.6233 9.56096 10.3131L7.07619 7.84813L4.61121 10.3131Z" fill="white"/>
</svg>
