<svg width="14" height="14" viewBox="0 0 14 14" fill="none" xmlns="http://www.w3.org/2000/svg">
<path d="M4.61123 10.3131C4.29445 10.6299 4.02386 10.6761 3.79948 10.4517C3.56849 10.2207 3.61139 9.94683 3.92817 9.63005L6.39314 7.16507L3.92817 4.7001C3.61139 4.38332 3.56519 4.11273 3.78958 3.88834C4.01397 3.66395 4.28455 3.71015 4.60134 4.02693L7.08611 6.49191L9.55108 4.02693C9.86787 3.71015 10.1384 3.66395 10.3628 3.88834C10.5872 4.11273 10.541 4.38332 10.2242 4.7001L7.76917 7.15518L10.2341 9.63995C10.5443 9.95013 10.5872 10.2174 10.3628 10.4418C10.1384 10.6662 9.87117 10.6233 9.56098 10.3131L7.07621 7.84814L4.61123 10.3131Z" fill="#333333"/>
</svg>
