<svg width="29" height="32" viewBox="0 0 29 32" fill="none" xmlns="http://www.w3.org/2000/svg">
<path d="M21.6372 1C18.2216 1 15.4534 4.31605 15.4534 8.05873C15.4534 10.3366 16.5573 12.3452 17.9065 13.5958C19.0906 14.6945 19.8181 15.5404 19.9634 17.3761V29.4794C19.9634 30.3189 20.6654 31.0001 21.5306 31.0001H21.743C22.6082 31.0001 23.3101 30.3189 23.3101 29.4794V17.376C23.4554 15.5404 24.1829 14.6944 25.3671 13.5958C26.7163 12.3452 27.8202 10.3365 27.8202 8.05867C27.8201 4.31605 25.0509 1 21.6372 1Z" fill="white" stroke="#333333"/>
<path d="M10.5687 2.4383V8.84699C10.5687 9.25621 10.2272 9.58855 9.80539 9.58855H9.60062C9.1798 9.58855 8.83729 9.25621 8.83729 8.84699V2.409C8.83729 1.35338 8.10512 1.03662 7.40217 1.03662C6.70018 1.03662 5.96801 1.35338 5.96801 2.409V8.84699C5.96801 9.25621 5.6255 9.58855 5.20377 9.58855H4.99997C4.57823 9.58855 4.23663 9.25621 4.23663 8.84699V2.4383C4.23663 0.547715 1.45889 0.611816 1.45889 2.45934C1.45889 4.67125 1.45889 8.57875 1.45889 8.57875C1.44567 11.9772 2.28261 12.8588 3.66394 13.9181C4.77732 14.7714 5.7293 15.2584 5.7293 17.377V29.4793C5.7293 30.3188 6.43032 31 7.29649 31H7.50881C8.37401 31 9.076 30.3188 9.076 29.4793V17.377C9.076 15.2584 10.0271 14.7713 11.1405 13.9181C12.5227 12.8588 13.3596 11.9772 13.3464 8.57875C13.3464 8.57875 13.3464 4.67125 13.3464 2.45934C13.3465 0.611816 10.5687 0.547715 10.5687 2.4383Z" fill="white" stroke="#333333"/>
</svg>
