<svg width="34" height="34" viewBox="0 0 34 34" fill="none" xmlns="http://www.w3.org/2000/svg">
<path d="M33.8745 8.43427L28.7664 3.31926L25.5681 0.134284C25.4004 -0.0329271 25.129 -0.0326615 24.9616 0.134749L3.46593 21.6305C3.42735 21.6691 3.38565 21.7109 3.35045 21.7528L2.86881 22.2347C2.60703 22.4965 2.41512 22.8211 2.30688 23.1807L0.114208 30.6379C-0.168417 31.5558 0.0829304 32.5474 0.763794 33.2282C1.43051 33.895 2.40469 34.15 3.31944 33.8916L10.8322 31.7059C11.1918 31.5977 11.5233 31.3987 11.7886 31.1337L33.8741 9.04129C34.0418 8.87361 34.0418 8.60194 33.8745 8.43427ZM2.06516 31.3412L2.43597 30.1665L2.9562 30.6765L3.13058 30.8523L2.48737 31.1521L2.06516 31.3412ZM6.9832 24.9053L7.19418 24.8925L7.16994 25.2719L7.07498 26.7501L7.0609 26.9473H7.06223L7.0617 26.958L8.74775 26.843L9.07839 26.8211L9.11438 26.8198L9.08649 27.1817L8.98429 28.6811L8.97094 28.857H8.972L8.97147 28.8678L10.6575 28.7596L10.8784 28.7455L11.0304 28.7431L10.8044 28.9692L10.2072 29.5731L4.66669 31.1757L2.80931 29.3321L4.43984 23.8057L5.0367 23.2086L5.03697 23.2016L5.3022 22.9364L5.21407 24.8206L5.20385 25.0136H5.20491L5.20438 25.0243L6.9832 24.9053ZM10.106 27.7389L10.2455 25.6873L8.40675 25.8091L8.18954 25.8224L8.30661 24.0023L8.32275 23.7744H8.32122L8.32202 23.7638L7.54679 23.8125L7.20474 23.8336H7.19796L6.35626 23.8834L6.25532 23.8881L6.40188 21.8435V21.8368L11.485 16.7536L25.268 2.97043L26.668 4.36337L27.1952 4.89037L27.1916 4.89402L31.0265 8.72891L31.0354 8.73781L17.2525 22.521L12.1657 27.6075L10.3357 27.7253L10.106 27.7389Z" fill="white"/>
<path d="M26.3418 6.03117L26.3494 6.0236L25.9718 5.64575L9.2312 22.3867L9.60879 22.7642L26.3061 6.0669L26.3418 6.03117Z" fill="white"/>
<path d="M27.9855 7.66005L11.2448 24.4008L11.6224 24.7783L28.3631 8.03763L27.9855 7.66005Z" fill="white"/>
</svg>
