<svg width="34" height="32" viewBox="0 0 34 32" fill="none" xmlns="http://www.w3.org/2000/svg">
<path d="M2.06275 28.9217C1.58529 29.3857 1.58529 30.1379 2.06371 30.6019C2.54118 31.0649 3.31617 31.0645 3.79363 30.6007L5.45657 28.9851L3.72545 27.3063L2.06275 28.9217ZM2.73032 30.2099L2.72539 30.2216C2.65064 30.1913 2.57963 30.1463 2.51825 30.0867C2.26766 29.8438 2.26766 29.4456 2.51825 29.2022L3.60545 28.1461L3.61863 28.1589L2.73032 30.2099Z" fill="#30AC51" stroke="#333333"/>
<path d="M23.9611 3.20979L15.5894 11.3429C11.5995 15.219 7.19579 23.9826 7.19579 23.9826L4.29827 26.7976L4.29382 26.8019L4.28696 26.8085L5.96873 28.4397L8.87756 25.6138C8.87756 25.6138 17.9021 21.3322 21.892 17.4558L30.2638 9.32268C29.3496 8.26178 28.3362 7.18909 27.2491 6.1345C26.1619 5.07997 25.0549 4.09621 23.9611 3.20979ZM26.476 10.4083L20.7684 15.9532C20.12 16.5831 19.447 17.1847 18.75 17.7579C18.3984 18.047 17.8744 18.0187 17.5483 17.7027L15.3379 15.5588C15.0124 15.2429 14.983 14.7347 15.2801 14.3935C15.8701 13.716 16.4896 13.062 17.1381 12.432L22.845 6.88754C23.1939 6.5488 23.7595 6.54863 24.1083 6.88714L26.4755 9.18294C26.8241 9.52127 26.8243 10.0699 26.476 10.4083Z" fill="#30AC51" stroke="#333333"/>
<path d="M31.8425 4.77732L28.6424 1.67358C27.7861 0.842758 26.3963 0.843926 25.5399 1.67604L24.7013 2.49063L24.6273 2.56152L24.6278 2.56199L24.6209 2.56864C25.7439 3.48011 26.8577 4.47006 27.9108 5.49148C28.964 6.5129 29.9849 7.59318 30.9235 8.6817L31.8425 7.78886C32.6989 6.95704 32.6989 5.60803 31.8425 4.77732Z" fill="#30AC51" stroke="#333333"/>
<path d="M23.0301 8.97046C22.822 8.76883 22.4818 8.76906 22.2739 8.97116L18.3034 12.8283C18.0954 13.0304 18.0954 13.3607 18.3034 13.5623L19.6034 14.823C19.8112 15.0249 20.1516 15.0247 20.3596 14.8226L24.33 10.9654C24.5379 10.7633 24.5379 10.433 24.33 10.2312L23.0301 8.97046Z" fill="#30AC51" stroke="#333333"/>
</svg>
