<svg width="24" height="30" viewBox="0 0 24 30" fill="none" xmlns="http://www.w3.org/2000/svg">
<path d="M21.4623 3.625C21.9347 3.625 22.3212 3.23125 22.3212 2.75V1.875C22.3212 1.39375 21.9347 1 21.4623 1H2.56835C2.096 1 1.70953 1.39375 1.70953 1.875V2.75C1.70953 3.23125 2.096 3.625 2.56835 3.625H3.42717V12.1945C2.34291 12.7469 1.70953 13.4086 1.70953 14.125C1.70953 17.8 3.56673 21.0266 6.36862 22.9023L5.21995 26.7414C4.88179 27.8625 5.7084 29 6.86244 29H17.1682C18.3223 29 19.1489 27.8625 18.8107 26.7414L17.6621 22.9023C20.464 21.0266 22.3212 17.8 22.3212 14.125C22.3212 13.4086 21.6878 12.7469 20.6035 12.1945V3.625H21.4623ZM6.00362 4.9375C6.00362 4.69688 6.19686 4.5 6.43303 4.5H9.00948C9.24566 4.5 9.43889 4.69688 9.43889 4.9375V5.8125C9.43889 6.05312 9.24566 6.25 9.00948 6.25H6.43303C6.19686 6.25 6.00362 6.05312 6.00362 5.8125V4.9375ZM12.0153 15.875C7.87692 15.875 4.52216 15.093 4.52216 14.125C4.52216 13.157 7.87692 12.375 12.0153 12.375C16.1538 12.375 19.5085 13.157 19.5085 14.125C19.5085 15.093 16.1538 15.875 12.0153 15.875Z" fill="white" stroke="black"/>
</svg>
