<svg width="24" height="30" viewBox="0 0 24 30" fill="none" xmlns="http://www.w3.org/2000/svg">
<path d="M21.4623 3.625C21.9346 3.625 22.3211 3.23125 22.3211 2.75V1.875C22.3211 1.39375 21.9346 1 21.4623 1H2.56829C2.09594 1 1.70947 1.39375 1.70947 1.875V2.75C1.70947 3.23125 2.09594 3.625 2.56829 3.625H3.42711V12.1945C2.34285 12.7469 1.70947 13.4086 1.70947 14.125C1.70947 17.8 3.56667 21.0266 6.36856 22.9023L5.21989 26.7414C4.88173 27.8625 5.70834 29 6.86238 29H17.1682C18.3222 29 19.1488 27.8625 18.8107 26.7414L17.662 22.9023C20.4639 21.0266 22.3211 17.8 22.3211 14.125C22.3211 13.4086 21.6877 12.7469 20.6035 12.1945V3.625H21.4623ZM6.00356 4.9375C6.00356 4.69688 6.19679 4.5 6.43297 4.5H9.00942C9.2456 4.5 9.43883 4.69688 9.43883 4.9375V5.8125C9.43883 6.05312 9.2456 6.25 9.00942 6.25H6.43297C6.19679 6.25 6.00356 6.05312 6.00356 5.8125V4.9375ZM12.0153 15.875C7.87686 15.875 4.5221 15.093 4.5221 14.125C4.5221 13.157 7.87686 12.375 12.0153 12.375C16.1537 12.375 19.5085 13.157 19.5085 14.125C19.5085 15.093 16.1537 15.875 12.0153 15.875Z" fill="#E65CCF" stroke="black"/>
</svg>
