<svg width="32" height="31" viewBox="0 0 32 31" fill="none" xmlns="http://www.w3.org/2000/svg">
<path d="M20.7056 6.70026V6.70481H23.2024V8.621C24.0011 7.90961 24.773 7.25177 25.4976 6.66125V4.69122H20.7056V6.68799V6.70026Z" fill="#DF6F33" stroke="#333333"/>
<path d="M25.4977 18.0509V18.0443L24.5582 18.9806L23.7293 18.1483C23.5372 17.9562 23.3906 17.738 23.2852 17.5062C23.256 17.4389 23.2288 17.3703 23.2069 17.2994V17.3108C23.2058 17.3069 23.2038 17.3032 23.2024 17.2992V28.314V28.3769H3.41235H3.29556V6.83234V6.70487H5.79228V4.69122H1V30.3905H25.4976V23.071L25.5011 18.0474L25.4977 18.0509Z" fill="#DF6F33" stroke="#333333"/>
<path d="M8.52385 7.56069H17.974C18.5141 7.56069 18.9539 7.12117 18.9539 6.58081V3.93945H17.0074C16.6317 2.25835 15.088 1 13.2489 1C11.4099 1 9.86623 2.25835 9.49036 3.93945H7.54404V6.58075C7.54404 7.12111 7.98355 7.56069 8.52385 7.56069ZM13.2489 2.13094C13.8731 2.13094 14.3799 2.63754 14.3799 3.26181C14.3799 3.88608 13.8731 4.39269 13.2489 4.39269C12.6248 4.39269 12.118 3.88608 12.118 3.26181C12.118 2.63754 12.6248 2.13094 13.2489 2.13094Z" fill="#DF6F33" stroke="#333333"/>
<path d="M23.1419 17.0844C23.1553 17.1583 23.1754 17.2286 23.2023 17.2991V17.024L23.1419 17.0844Z" fill="#DF6F33" stroke="#333333"/>
<path d="M14.0419 20.0684L13.8519 19.8772L13.8517 19.8777L13.8483 19.8743C12.256 21.7957 11.1582 23.3661 10.7718 24.3032L11.5648 25.0987C12.4715 24.7279 13.9751 23.6896 15.8138 22.1883C15.8765 22.1372 15.9361 22.0902 15.9996 22.0382L15.9992 22.0378C16.0003 22.0368 16.0015 22.036 16.0029 22.035L14.0419 20.0684Z" fill="#DF6F33" stroke="#333333"/>
<path d="M30.7805 5.70558L30.2203 5.14402C30.0652 4.98823 29.8106 4.988 29.6551 5.14309L28.6061 6.18889L28.3661 5.94802C26.1702 7.49401 22.9888 10.251 19.6413 13.5889C17.7515 15.4732 16.0475 17.3032 14.643 18.9359L16.9431 21.243C18.5801 19.8432 20.415 18.1446 22.3049 16.26C25.6522 12.9224 28.4187 9.74893 29.9707 7.55766L29.7307 7.31673L30.7795 6.27093C30.9354 6.1159 30.9356 5.86137 30.7805 5.70558Z" fill="#DF6F33" stroke="#333333"/>
<path d="M11.0484 25.245L10.6239 24.8194L10.5706 24.7658L10.5692 24.7644L10.566 24.761C10.1515 25.2038 9.81829 25.6116 9.61486 25.9181C9.42783 26.1967 9.34801 26.3905 9.41095 26.4535C9.47343 26.5164 9.66753 26.4373 9.9467 26.2512C10.2464 26.0532 10.6438 25.7306 11.0755 25.3312C11.0849 25.3225 11.0938 25.315 11.1032 25.3064H11.1029C11.1041 25.3052 11.1052 25.3043 11.1063 25.3032L11.0484 25.245Z" fill="#DF6F33" stroke="#333333"/>
<path d="M29.4188 10.9999L28.4964 10.075L27.7671 10.8024L27.7596 10.8097H27.7599L27.7565 10.8128L28.6789 11.7378L24.5627 15.8421C24.154 16.2497 24.153 16.9112 24.5604 17.3199L29.9081 11.988C30.0454 11.8509 30.0457 11.6288 29.9088 11.4915L29.4188 10.9999Z" fill="#DF6F33" stroke="#333333"/>
</svg>
