<svg width="32" height="32" viewBox="0 0 32 32" fill="none" xmlns="http://www.w3.org/2000/svg">
<path d="M4.07469 7.60397L2.95239 6.43343L3.26754 6.18542L3.26792 6.18512L10.181 0.733733L11.0575 2.09785L4.07469 7.60397Z" fill="white" stroke="#333333"/>
<path d="M11.0964 6.97135L11.0963 6.97143C11.1108 6.99825 11.121 7.02285 11.1281 7.04294C11.1605 7.1228 11.1854 7.22805 11.1723 7.3516L11.1721 7.35329C11.0763 8.22907 10.9 10.5682 11.4018 12.7625L11.4018 12.7627C11.5519 13.4199 10.7439 13.8293 10.2931 13.3589L10.293 13.3587L7.18895 10.1171L7.18873 10.1168C6.88812 9.80249 6.92259 9.29621 7.26543 9.02607L11.0964 6.97135ZM11.0964 6.97135L11.0899 6.95999C10.9092 6.64539 10.4606 6.5064 10.1216 6.77389C10.1216 6.77392 10.1215 6.77395 10.1215 6.77398C10.1214 6.77407 10.1213 6.77416 10.1212 6.77424L7.26585 9.02574L11.0964 6.97135ZM6.12288 9.27375L12.4592 4.27722L12.8086 4.82141L12.8088 4.82169L19.3227 14.9518L18.7971 15.3662L19.1067 15.7588L18.7971 15.3662C18.2913 15.7651 18.2038 16.5025 18.6029 17.0085C18.603 17.0086 18.603 17.0086 18.6031 17.0086L19.0966 17.6347L17.3097 19.0437L16.8161 18.4178C16.417 17.9113 15.6771 17.8264 15.1707 18.2258L14.6421 18.6426L5.86535 9.47627L6.12235 9.27416L6.12288 9.27375Z" fill="white" stroke="#333333"/>
<path d="M26.7154 18.584L26.7442 18.0848L26.7441 18.0848L26.744 18.0848L26.7436 18.0848L26.7418 18.0847L26.7347 18.0843L26.7077 18.0827L26.6108 18.0771L26.3133 18.0594C26.1007 18.0466 25.9267 18.0353 25.8894 18.0329C25.8845 18.0326 25.8819 18.0324 25.882 18.0324L25.8468 18.0274H25.8113C25.5219 18.0274 25.2142 18.0434 24.93 18.0716L24.9215 18.0724L24.913 18.0736C24.5828 18.1177 24.2585 18.1817 23.9112 18.2685C23.6233 18.3373 23.3322 18.4577 23.0826 18.5975C22.7334 18.792 22.4236 19.048 22.1548 19.3326L21.5295 19.9948C21.9772 19.351 22.5637 18.8119 23.2303 18.4378C23.6037 18.2287 24.0111 18.068 24.4195 17.9694L24.4195 17.9694L24.4235 17.9684C24.8003 17.8741 25.1751 17.7993 25.5531 17.7532C25.9323 17.7141 26.3117 17.6929 26.6924 17.6956C26.7129 17.6968 26.7332 17.6975 26.7482 17.6979C26.7727 17.6986 26.8002 17.6991 26.8257 17.6996C26.8831 17.7006 26.9243 17.7014 26.9445 17.7025L26.9452 17.7026C26.9452 17.7026 26.9458 17.7026 26.9467 17.7027C26.962 17.7041 27.0884 17.716 27.1805 17.7181C27.3478 17.7332 27.5095 17.7408 27.6631 17.748C27.8498 17.7602 28.0367 17.7732 28.2215 17.7861C28.657 17.8164 29.0803 17.8459 29.4591 17.8618L29.4591 17.8619L29.4659 17.8621C29.4957 17.8629 29.5262 17.8639 29.5572 17.8648C29.7769 17.8717 30.0227 17.8794 30.2457 17.8572C30.5077 17.8423 30.7456 17.791 30.9573 17.7035L30.9574 17.7037L30.9681 17.6989C30.9834 17.6922 30.9985 17.6852 31.0134 17.6779C31.0179 17.7253 31.0212 17.7755 31.0227 17.8285C31.029 18.1498 30.9744 18.5427 30.8548 18.9506C30.7312 19.3511 30.5484 19.759 30.3196 20.1404C29.9823 20.6905 29.5376 21.1802 29.0248 21.5694C28.8952 21.6655 28.7491 21.7151 28.6066 21.7151C28.6066 21.7151 28.6066 21.7151 28.6066 21.7151L20.7623 21.7148C20.7827 21.6202 20.8074 21.5241 20.8362 21.4273L20.8362 21.4273L20.8369 21.4249C20.9524 21.0306 21.1345 20.6213 21.3656 20.2452C21.415 20.1648 21.4666 20.0858 21.5201 20.0083L22.4319 20.1684C22.4672 20.1746 22.5109 20.1796 22.5499 20.1837L22.5599 20.1847L22.5698 20.1853C22.6965 20.1935 22.9359 20.21 23.1448 20.2246L23.4153 20.2435L23.4988 20.2494L23.5216 20.251L23.5275 20.2514L23.529 20.2515L23.5294 20.2515L23.5295 20.2515L23.5295 20.2515L23.5647 19.7528L23.5295 20.2515L23.5303 20.2516C23.7494 20.2667 23.9763 20.2821 24.2004 20.2938L24.2104 20.2944L24.2204 20.2945C24.5351 20.2983 24.8499 20.2823 25.1188 20.2539L25.1188 20.254L25.1284 20.2528C25.4801 20.2087 25.8026 20.1479 26.1062 20.0648L25.9741 19.5825M26.7154 18.584L26.746 18.085L26.7461 18.085L26.7461 18.085L26.7464 18.085L26.7476 18.085L26.7523 18.0853L26.7701 18.0864L26.835 18.0905L27.0461 18.1038C27.2078 18.1142 27.4002 18.127 27.5093 18.1356L27.5206 18.1365L27.5318 18.1379C27.5683 18.1425 27.6086 18.1484 27.6459 18.1565L28.4947 18.3421L27.9078 18.9828C27.6423 19.2726 27.3245 19.5322 26.9778 19.7259C26.8497 19.8001 26.7204 19.866 26.5725 19.9199C26.5061 19.9477 26.4414 19.9704 26.3824 19.9886L26.2351 19.5108M26.7154 18.584L26.7442 18.0848L26.746 18.0849L26.7154 18.584ZM26.2351 19.5108L26.3835 19.9883C26.3424 20.001 26.2671 20.0216 26.2124 20.0364L26.1351 20.0571L26.111 20.0635L26.1043 20.0653L26.1025 20.0658L26.102 20.0659L26.1019 20.0659L26.1018 20.0659L26.1018 20.0659L25.9741 19.5825M26.2351 19.5108C26.1746 19.5296 25.9741 19.5825 25.9741 19.5825M26.2351 19.5108C26.2842 19.4956 26.3372 19.4768 26.3901 19.4541C26.5074 19.4124 26.6133 19.3594 26.7305 19.2913L25.0662 19.7566M25.9741 19.5825C25.6978 19.6582 25.3992 19.7149 25.0662 19.7566M25.0662 19.7566C24.8167 19.783 24.5215 19.7981 24.2266 19.7945L25.0662 19.7566Z" fill="white" stroke="#333333"/>
<path d="M29.3736 28.4074H28.9691V28.0823L28.4705 28.0823L20.9397 28.0821L20.4409 28.0821L20.4409 28.4073H19.9409H19.3063C19.1856 28.942 18.7177 29.3576 18.1329 29.3642C18.0407 29.366 17.9462 29.3669 17.8539 29.3678L17.8406 29.3679C17.7424 29.3689 17.6467 29.3698 17.5534 29.3718L17.5485 29.3719C14.6557 29.4037 12.111 29.2384 9.52244 27.9994L9.51467 27.9957L9.5147 27.9956L9.50879 27.9926L9.5077 27.9921L29.3736 28.4074ZM29.3736 28.4074V31.5H19.3367V31.0825L18.8168 31.1033L18.8167 31.1033L18.8163 31.1033L18.8147 31.1034L18.8079 31.1036L18.7811 31.1046L18.6811 31.1081C18.5961 31.1109 18.4784 31.1143 18.3472 31.1171C18.08 31.1227 17.7737 31.125 17.5723 31.1147L17.5694 31.1146C16.3382 31.0586 15.0878 30.9919 13.8198 30.9242C9.70525 30.7048 5.40548 30.4755 0.976874 30.5683V27.9392C3.26812 27.799 5.38539 27.6452 7.06742 27.4704L29.3736 28.4074Z" fill="white" stroke="#333333"/>
</svg>
